<svg width="100" height="150" viewBox="0 0 298 322" fill="none" xmlns="http://www.w3.org/2000/svg">
<circle cx="100" cy="112" r="97.5" stroke="#FB500C" stroke-width="5"/>
<circle cx="100" cy="112" r="72.5" stroke="#FB500C" stroke-width="5"/>
<circle cx="100" cy="112" r="12.5" stroke="#FB500C" stroke-width="5"/>
<rect x="98" y="23" width="5" height="30" rx="1" fill="#FB500C"/>
<rect x="98" y="173" width="5" height="30" rx="1" fill="#FB500C"/>
<rect x="157.5" y="114.5" width="5" height="30" rx="1" transform="rotate(-90 157.5 114.5)" fill="#FB500C"/>
<rect x="12" y="115" width="5" height="30" rx="1" transform="rotate(-90 12 115)" fill="#FB500C"/>
<rect x="173.906" y="219.808" width="40" height="133.873" rx="17.5" transform="rotate(-43 173.906 219.808)" stroke="#FB500C" stroke-width="5"/>
<line x1="170.722" y1="179.293" x2="192.875" y2="202.233" stroke="#FB500C" stroke-width="5"/>
<line x1="161.798" y1="189.263" x2="183.951" y2="212.203" stroke="#FB500C" stroke-width="5"/>
<rect x="234.985" y="285.161" width="39.873" height="20.4834" transform="rotate(-43 234.985 285.161)" stroke="#FB500C" stroke-width="5"/>
<rect x="98" y="111" width="123.82" height="5" rx="1" transform="rotate(-32 98 111)" fill="#FB500C"/>
<line x1="203.675" y1="29.3759" x2="246.078" y2="2.87989" stroke="#FB500C" stroke-width="5"/>
<line x1="239.582" y1="23.3638" x2="244.582" y2="4.36377" stroke="#FB500C" stroke-width="5"/>
<line x1="204.506" y1="46.4215" x2="205.892" y2="26.8236" stroke="#FB500C" stroke-width="5"/>
<line x1="202.718" y1="47.6054" x2="224.633" y2="54.18" stroke="#FB500C" stroke-width="5"/>
<line x1="236.487" y1="24.5479" x2="260.759" y2="29.3667" stroke="#FB500C" stroke-width="5"/>
<line x1="220.675" y1="55.3759" x2="263.078" y2="28.8799" stroke="#FB500C" stroke-width="5"/>
</svg>
