<svg width="298" height="323" viewBox="0 0 298 323" fill="none" xmlns="http://www.w3.org/2000/svg">
<circle cx="100" cy="113" r="97.5" stroke="#FB500C" stroke-width="5"/>
<circle cx="100" cy="113" r="72.5" stroke="#FB500C" stroke-width="5"/>
<circle cx="100" cy="113" r="12.5" stroke="#FB500C" stroke-width="5"/>
<rect x="98" y="24" width="5" height="30" rx="1" fill="#FB500C"/>
<rect x="98" y="174" width="5" height="30" rx="1" fill="#FB500C"/>
<rect x="157.5" y="115.5" width="5" height="30" rx="1" transform="rotate(-90 157.5 115.5)" fill="#FB500C"/>
<rect x="12" y="116" width="5" height="30" rx="1" transform="rotate(-90 12 116)" fill="#FB500C"/>
<rect x="173.906" y="220.808" width="40" height="133.873" rx="17.5" transform="rotate(-43 173.906 220.808)" stroke="#FB500C" stroke-width="5"/>
<line x1="170.722" y1="180.293" x2="192.875" y2="203.233" stroke="#FB500C" stroke-width="5"/>
<line x1="161.798" y1="190.263" x2="183.951" y2="213.203" stroke="#FB500C" stroke-width="5"/>
<rect x="234.985" y="286.161" width="39.873" height="20.4834" transform="rotate(-43 234.985 286.161)" stroke="#FB500C" stroke-width="5"/>
<rect x="98" y="112" width="123.82" height="5" rx="1" transform="rotate(-32 98 112)" fill="#FB500C"/>
<path d="M203.5 29.5002L246.263 2.31983" stroke="#FB500C" stroke-width="5"/>
<path d="M239.575 24.3875L245 3.5" stroke="#FB500C" stroke-width="5"/>
<path d="M204.5 48L204.5 27.4144" stroke="#FB500C" stroke-width="5"/>
<line x1="202.791" y1="48.6283" x2="223.791" y2="55.6283" stroke="#FB500C" stroke-width="5"/>
<path d="M237.089 24.0541L261.771 30.153" stroke="#FB500C" stroke-width="5"/>
<path d="M221.5 56L263.5 29.5" stroke="#FB500C" stroke-width="5"/>
</svg>
